<svg xmlns="http://www.w3.org/2000/svg" viewBox="0 0 1024 1024" width="1024" height="1024">
  <rect width="1024" height="1024" fill="#F8FAFC" />
  
  <g transform="translate(112, 162)"> <path d="M60 150 
             C60 67.157 127.157 0 210 0 
             H410 
             C492.843 0 560 67.157 560 150 
             V350 
             C560 432.843 492.843 500 410 500 
             H210 
             C127.157 500 60 432.843 60 350 
             V300 
             L0 420 
             L60 250 
             Z" 
          fill="#059669" />
    
    <text x="310" y="300" 
          font-family="Arial, Helvetica, sans-serif" 
          font-weight="bold" 
          font-size="180" 
          fill="#FFFFFF" 
          text-anchor="middle" 
          dominant-baseline="middle">PT</text>

    <g transform="translate(240, 200)">
      <path d="M60 150 
               C60 67.157 127.157 0 210 0 
               H410 
               C492.843 0 560 67.157 560 150 
               V350 
               C560 432.843 492.843 500 410 500 
               H210 
               C127.157 500 60 432.843 60 350 
               V300 
               L0 420 
               L60 250 
               Z" 
            fill="#1E3A8A" 
            stroke="#F8FAFC" 
            stroke-width="30" />
      
      <text x="310" y="300" 
            font-family="Arial, Helvetica, sans-serif" 
            font-weight="bold" 
            font-size="180" 
            fill="#FFFFFF" 
            text-anchor="middle" 
            dominant-baseline="middle">EN</text>
    </g>

    <circle cx="750" cy="200" r="60" fill="#F97316" stroke="#F8FAFC" stroke-width="15"/>
    
  </g>
</svg>